<svg xmlns="http://www.w3.org/2000/svg" viewBox="0 0 64 64" width="64" height="64">
  <defs>
    <linearGradient id="logoGradient" x1="0%" y1="0%" x2="100%" y2="100%">
      <stop offset="0%" style="stop-color:#1e40af;stop-opacity:1" />
      <stop offset="100%" style="stop-color:#3b82f6;stop-opacity:1" />
    </linearGradient>
    <linearGradient id="accentGradient" x1="0%" y1="0%" x2="100%" y2="100%">
      <stop offset="0%" style="stop-color:#f59e0b;stop-opacity:1" />
      <stop offset="100%" style="stop-color:#fbbf24;stop-opacity:1" />
    </linearGradient>
  </defs>
  
  <!-- Background circle -->
  <circle cx="32" cy="32" r="30" fill="url(#logoGradient)" stroke="#1e40af" stroke-width="2"/>
  
  <!-- Building/Institution icon -->
  <rect x="18" y="28" width="28" height="20" fill="white" rx="2"/>
  <rect x="20" y="30" width="24" height="16" fill="url(#logoGradient)" rx="1"/>
  
  <!-- Columns representing strength and stability -->
  <rect x="22" y="32" width="3" height="12" fill="white"/>
  <rect x="27" y="32" width="3" height="12" fill="white"/>
  <rect x="32" y="32" width="3" height="12" fill="white"/>
  <rect x="37" y="32" width="3" height="12" fill="white"/>
  
  <!-- Top section representing education/knowledge -->
  <rect x="18" y="24" width="28" height="6" fill="url(#accentGradient)" rx="3"/>
  
  <!-- Letter "E" for Elite -->
  <text x="32" y="20" font-family="Arial, sans-serif" font-size="12" font-weight="bold" text-anchor="middle" fill="white">E</text>
  
  <!-- Financial growth arrow -->
  <path d="M 12 40 L 20 32 L 16 32 L 16 28 L 24 28 L 24 36 L 20 36 Z" fill="url(#accentGradient)" opacity="0.8"/>
  
  <!-- Success indicator -->
  <circle cx="48" cy="20" r="6" fill="url(#accentGradient)"/>
  <path d="M 45 20 L 47 22 L 51 18" stroke="white" stroke-width="2" fill="none" stroke-linecap="round" stroke-linejoin="round"/>
</svg>